<svg width="1372" height="371" viewBox="0 0 1372 371" fill="none" xmlns="http://www.w3.org/2000/svg">
<path d="M150.534 8L3.53377 153C-2.86623 163.4 0.867104 170.667 3.53377 173L73.5338 242C83.9338 250.4 92.8671 245.5 96.0338 242L296.534 42C304.367 36.6667 319.734 23.6 318.534 14C317.334 4.4 309.367 1 305.534 0.5H163.034C158.234 0.5 152.7 5.5 150.534 8Z" fill="white"/>
<path d="M192.067 362.638L339.067 217.638C345.467 207.238 341.733 199.971 339.067 197.638L269.067 128.638C258.667 120.238 249.733 125.138 246.567 128.638L46.0668 328.638C38.2335 333.971 22.8668 347.038 24.0668 356.638C25.2668 366.238 33.2335 369.638 37.0668 370.138H179.567C184.367 370.138 189.9 365.138 192.067 362.638Z" fill="#A1D068"/>
<path d="M453.392 266.992C438.884 266.992 426.946 263.818 417.576 257.471C408.206 251.124 402.539 241.83 400.575 229.589L424.603 223.469C425.661 229.211 427.55 233.745 430.27 237.07C432.991 240.394 436.315 242.737 440.244 244.097C444.325 245.457 448.707 246.137 453.392 246.137C460.495 246.137 465.784 244.852 469.26 242.283C472.887 239.714 474.7 236.465 474.7 232.536C474.7 228.456 472.963 225.433 469.487 223.469C466.162 221.504 461.024 219.842 454.072 218.481L447.045 217.348C439.338 215.837 432.31 213.797 425.963 211.228C419.616 208.507 414.478 204.88 410.549 200.347C406.771 195.662 404.882 189.768 404.882 182.665C404.882 171.785 408.886 163.397 416.896 157.503C425.057 151.61 435.711 148.663 448.858 148.663C461.402 148.663 471.754 151.459 479.914 157.05C488.075 162.642 493.364 170.122 495.782 179.492L471.754 186.746C470.545 180.399 467.9 175.94 463.82 173.371C459.739 170.651 454.752 169.291 448.858 169.291C442.814 169.291 438.129 170.349 434.804 172.465C431.63 174.58 430.044 177.603 430.044 181.532C430.044 185.461 431.706 188.408 435.031 190.373C438.355 192.337 442.814 193.773 448.405 194.68L455.432 196.04C463.744 197.551 471.225 199.516 477.874 201.934C484.675 204.352 490.039 207.827 493.969 212.361C497.898 216.895 499.862 223.015 499.862 230.722C499.862 242.359 495.631 251.351 487.168 257.698C478.856 263.894 467.598 266.992 453.392 266.992ZM560.044 266.992C552.185 266.992 545.082 265.632 538.735 262.912C532.388 260.04 527.325 255.96 523.547 250.671C519.92 245.381 518.107 238.883 518.107 231.176C518.107 223.62 519.92 217.273 523.547 212.134C527.325 206.996 532.464 203.143 538.962 200.573C545.46 197.853 552.865 196.493 561.177 196.493H593.593V189.693C593.593 183.799 591.779 179.038 588.152 175.411C584.525 171.633 578.858 169.744 571.151 169.744C563.595 169.744 557.852 171.558 553.923 175.185C550.145 178.661 547.651 183.194 546.442 188.786L522.414 180.852C524.227 174.958 527.099 169.593 531.028 164.757C535.108 159.921 540.473 156.068 547.123 153.196C553.772 150.174 561.933 148.663 571.604 148.663C586.263 148.663 597.749 152.365 606.06 159.77C614.523 167.024 618.755 177.603 618.755 191.506V235.483C618.755 240.017 620.871 242.283 625.102 242.283H634.623V263.818H616.261C610.821 263.818 606.363 262.458 602.887 259.738C599.411 257.018 597.673 253.315 597.673 248.631V248.177H593.82C592.913 250.293 591.326 252.862 589.059 255.884C586.792 258.907 583.316 261.552 578.632 263.818C574.098 265.934 567.902 266.992 560.044 266.992ZM564.351 245.684C572.965 245.684 579.992 243.266 585.432 238.43C590.873 233.443 593.593 226.793 593.593 218.481V216.215H562.764C557.172 216.215 552.639 217.424 549.163 219.842C545.687 222.26 543.949 225.811 543.949 230.496C543.949 235.029 545.762 238.732 549.389 241.603C553.016 244.324 558.003 245.684 564.351 245.684ZM699.546 266.992C690.479 266.992 682.016 264.801 674.158 260.418C666.299 255.884 660.028 249.311 655.343 240.697C650.658 232.083 648.316 221.731 648.316 209.641V206.014C648.316 193.924 650.658 183.572 655.343 174.958C660.028 166.344 666.224 159.846 673.931 155.463C681.79 150.93 690.328 148.663 699.546 148.663C706.498 148.663 712.392 149.494 717.228 151.156C722.064 152.819 725.917 154.934 728.789 157.503C731.811 160.073 734.154 162.868 735.816 165.891H739.67V105.139H765.512V263.818H740.123V249.084H736.269C733.549 253.618 729.393 257.773 723.802 261.552C718.21 265.178 710.125 266.992 699.546 266.992ZM707.254 244.324C716.623 244.324 724.406 241.301 730.602 235.256C736.798 229.06 739.896 220.295 739.896 208.961V206.694C739.896 195.209 736.798 186.443 730.602 180.399C724.557 174.354 716.775 171.331 707.254 171.331C697.884 171.331 690.026 174.354 683.679 180.399C677.483 186.443 674.385 195.209 674.385 206.694V208.961C674.385 220.295 677.483 229.06 683.679 235.256C690.026 241.301 697.884 244.324 707.254 244.324ZM851.577 266.992C840.394 266.992 830.345 264.725 821.428 260.191C812.663 255.507 805.711 248.933 800.573 240.47C795.586 231.856 793.093 221.58 793.093 209.641V206.014C793.093 194.075 795.586 183.799 800.573 175.185C805.711 166.571 812.663 159.997 821.428 155.463C830.345 150.93 840.394 148.663 851.577 148.663C862.76 148.663 872.734 150.93 881.5 155.463C890.265 159.997 897.141 166.571 902.128 175.185C907.266 183.799 909.835 194.075 909.835 206.014V209.641C909.835 221.58 907.266 231.856 902.128 240.47C897.141 248.933 890.265 255.507 881.5 260.191C872.734 264.725 862.76 266.992 851.577 266.992ZM851.577 243.87C861.098 243.87 868.881 240.848 874.926 234.803C880.971 228.607 883.993 219.993 883.993 208.961V206.694C883.993 195.662 880.971 187.124 874.926 181.079C868.881 174.883 861.098 171.785 851.577 171.785C842.057 171.785 834.274 174.883 828.229 181.079C822.184 187.124 819.161 195.662 819.161 206.694V208.961C819.161 219.993 822.184 228.607 828.229 234.803C834.274 240.848 842.057 243.87 851.577 243.87ZM937.554 263.818V151.836H963.17V164.757H967.023C968.686 160.073 971.481 156.672 975.411 154.557C979.34 152.441 984.025 151.383 989.465 151.383H1003.07V174.505H989.012C981.456 174.505 975.335 176.545 970.65 180.625C965.965 184.554 963.623 190.675 963.623 198.987V263.818H937.554ZM1073.35 266.992C1062.17 266.992 1052.27 264.65 1043.65 259.965C1035.19 255.129 1028.54 248.404 1023.71 239.79C1019.02 231.025 1016.68 220.824 1016.68 209.187V206.467C1016.68 194.68 1019.02 184.479 1023.71 175.865C1028.39 167.251 1034.96 160.601 1043.43 155.917C1051.89 151.081 1061.64 148.663 1072.67 148.663C1083.55 148.663 1093.07 151.081 1101.23 155.917C1109.39 160.601 1115.74 167.251 1120.27 175.865C1124.81 184.479 1127.07 194.529 1127.07 206.014V215.308H1042.97C1043.28 224.073 1046.37 231.1 1052.27 236.39C1058.16 241.679 1065.41 244.324 1074.03 244.324C1082.49 244.324 1088.76 242.51 1092.84 238.883C1096.92 235.105 1100.02 230.874 1102.14 226.189L1123.67 237.296C1121.56 241.377 1118.46 245.759 1114.38 250.444C1110.45 254.978 1105.16 258.907 1098.51 262.232C1091.86 265.405 1083.47 266.992 1073.35 266.992ZM1043.2 195.586H1100.55C1099.95 188.181 1097.08 182.288 1091.94 177.905C1086.95 173.522 1080.45 171.331 1072.44 171.331C1064.13 171.331 1057.48 173.522 1052.49 177.905C1047.51 182.288 1044.41 188.181 1043.2 195.586ZM1206.2 266.992C1195.32 266.992 1185.49 264.725 1176.73 260.191C1167.96 255.658 1161.01 249.084 1155.87 240.47C1150.89 231.856 1148.39 221.504 1148.39 209.414V206.241C1148.39 194.151 1150.89 183.799 1155.87 175.185C1161.01 166.571 1167.96 159.997 1176.73 155.463C1185.49 150.93 1195.32 148.663 1206.2 148.663C1216.93 148.663 1226.07 150.552 1233.63 154.33C1241.33 158.108 1247.53 163.322 1252.22 169.971C1256.9 176.469 1259.92 183.799 1261.28 191.959L1236.12 197.173C1235.52 192.488 1234.08 188.257 1231.81 184.479C1229.55 180.55 1226.3 177.452 1222.07 175.185C1217.99 172.918 1212.92 171.785 1206.88 171.785C1200.68 171.785 1195.09 173.145 1190.1 175.865C1185.27 178.434 1181.41 182.363 1178.54 187.652C1175.82 192.942 1174.46 199.289 1174.46 206.694V208.961C1174.46 216.366 1175.82 222.713 1178.54 228.002C1181.41 233.14 1185.27 237.07 1190.1 239.79C1195.09 242.51 1200.68 243.87 1206.88 243.87C1216.1 243.87 1223.05 241.528 1227.73 236.843C1232.57 232.007 1235.59 225.811 1236.8 218.255L1261.96 224.149C1260.15 232.007 1256.9 239.185 1252.22 245.684C1247.53 252.182 1241.33 257.396 1233.63 261.325C1226.07 265.103 1216.93 266.992 1206.2 266.992ZM1326.17 263.818C1318.92 263.818 1313.1 261.703 1308.72 257.471C1304.49 253.089 1302.37 247.195 1302.37 239.79V173.371H1273.13V151.836H1302.37V115.794H1328.44V151.836H1360.63V173.371H1328.44V235.483C1328.44 240.017 1330.56 242.283 1334.79 242.283H1357.23V263.818H1326.17Z" fill="white"/>
</svg>
